# xmcd CD database file
#
# Track frame offsets:
#	150
#	12276
#	24795
#	42997
#	56413
#	71264
#	83814
#	101180
#	119278
#	145050
#	162194
#	176202
#	189657
#	208203
#
# Disc length: 2935 seconds
#
# Revision: 2
# Processed by: cddbd v1.5.2PL0 Copyright (c) Steve Scherf et al.
# Submitted via: CDex 1.51
#
DISCID=bc0b750e
DTITLE=Freddy Fender - Golden Legends Freddy Fender Live
DYEAR=2006
DGENRE=Country
TTITLE0=Before The Next Teardrop Falls
TTITLE1=Wasted Days And Wasted Nights
TTITLE2=Secret Love
TTITLE3=I Can't Stop Loving You
TTITLE4=Cielito Linda
TTITLE5=Tell It Like It Is
TTITLE6=Jambalaya
TTITLE7=Talk To Me
TTITLE8=Since I Met You Baby
TTITLE9=Margaritaville
TTITLE10=The Rains Came
TTITLE11=Mexican Rose
TTITLE12=Vaya Con Dios
TTITLE13=You'll Lose A Good Thing
EXTD=YEAR: 2006
EXTT0=
EXTT1=
EXTT2=
EXTT3=
EXTT4=
EXTT5=
EXTT6=
EXTT7=
EXTT8=
EXTT9=
EXTT10=
EXTT11=
EXTT12=
EXTT13=
PLAYORDER=
